<?xml version="1.0" encoding="utf-8" standalone="no"?>
<!DOCTYPE svg PUBLIC "-//W3C//DTD SVG 1.1//EN"
  "http://www.w3.org/Graphics/SVG/1.1/DTD/svg11.dtd">
<svg xmlns:xlink="http://www.w3.org/1999/xlink" width="461.844844pt" height="268.416pt" viewBox="0 0 461.844844 268.416" xmlns="http://www.w3.org/2000/svg" version="1.1">
 <metadata>
  <rdf:RDF xmlns:dc="http://purl.org/dc/elements/1.1/" xmlns:cc="http://creativecommons.org/ns#" xmlns:rdf="http://www.w3.org/1999/02/22-rdf-syntax-ns#">
   <cc:Work>
    <dc:type rdf:resource="http://purl.org/dc/dcmitype/StillImage"/>
    <dc:date>2026-09-20T11:04:32.598352</dc:date>
    <dc:format>image/svg+xml</dc:format>
    <dc:creator>
     <cc:Agent>
      <dc:title>Matplotlib v3.11.2, https://matplotlib.org/</dc:title>
     </cc:Agent>
    </dc:creator>
   </cc:Work>
  </rdf:RDF>
 </metadata>
 <defs>
  <style type="text/css">*{stroke-linejoin: round; stroke-linecap: butt}</style>
 </defs>
 <g id="figure_1">
  <g id="patch_1">
   <path d="M 0 268.416 
L 461.844844 268.416 
L 461.844844 0 
L 0 0 
z
" style="fill: #ffffff"/>
  </g>
  <g id="axes_1">
   <g id="patch_2">
    <path d="M 32.926953 232.216 
L 454.644844 232.216 
L 454.644844 30.24 
L 32.926953 30.24 
z
" style="fill: #ffffff"/>
   </g>
   <g id="matplotlib.axis_1">
    <g id="xtick_1">
     <g id="line2d_1">
      <path d="M 52.095948 232.216 
L 52.095948 30.24 
" clip-path="url(#pba6e76875d)" style="fill: none; stroke: #b0b0b0; stroke-opacity: 0.2; stroke-width: 0.8; stroke-linecap: square"/>
     </g>
     <g id="line2d_2">
      <defs>
       <path id="mcdb51def34" d="M 0 0 
L 0 3.5 
" style="stroke: #000000; stroke-width: 0.8"/>
      </defs>
      <g>
       <use xlink:href="#mcdb51def34" x="52.095948" y="232.216" style="stroke: #000000; stroke-width: 0.8"/>
      </g>
     </g>
     <g id="text_1">
      <text style="font-size: 9px; font-family: 'DejaVu Sans'; text-anchor: middle" x="52.095948" y="246.053891" transform="rotate(-0 52.095948 246.053891)">1</text>
     </g>
    </g>
    <g id="xtick_2">
     <g id="line2d_3">
      <path d="M 106.864505 232.216 
L 106.864505 30.24 
" clip-path="url(#pba6e76875d)" style="fill: none; stroke: #b0b0b0; stroke-opacity: 0.2; stroke-width: 0.8; stroke-linecap: square"/>
     </g>
     <g id="line2d_4">
      <g>
       <use xlink:href="#mcdb51def34" x="106.864505" y="232.216" style="stroke: #000000; stroke-width: 0.8"/>
      </g>
     </g>
     <g id="text_2">
      <text style="font-size: 9px; font-family: 'DejaVu Sans'; text-anchor: middle" x="106.864505" y="246.053891" transform="rotate(-0 106.864505 246.053891)">2</text>
     </g>
    </g>
    <g id="xtick_3">
     <g id="line2d_5">
      <path d="M 161.633063 232.216 
L 161.633063 30.24 
" clip-path="url(#pba6e76875d)" style="fill: none; stroke: #b0b0b0; stroke-opacity: 0.2; stroke-width: 0.8; stroke-linecap: square"/>
     </g>
     <g id="line2d_6">
      <g>
       <use xlink:href="#mcdb51def34" x="161.633063" y="232.216" style="stroke: #000000; stroke-width: 0.8"/>
      </g>
     </g>
     <g id="text_3">
      <text style="font-size: 9px; font-family: 'DejaVu Sans'; text-anchor: middle" x="161.633063" y="246.053891" transform="rotate(-0 161.633063 246.053891)">3</text>
     </g>
    </g>
    <g id="xtick_4">
     <g id="line2d_7">
      <path d="M 216.40162 232.216 
L 216.40162 30.24 
" clip-path="url(#pba6e76875d)" style="fill: none; stroke: #b0b0b0; stroke-opacity: 0.2; stroke-width: 0.8; stroke-linecap: square"/>
     </g>
     <g id="line2d_8">
      <g>
       <use xlink:href="#mcdb51def34" x="216.40162" y="232.216" style="stroke: #000000; stroke-width: 0.8"/>
      </g>
     </g>
     <g id="text_4">
      <text style="font-size: 9px; font-family: 'DejaVu Sans'; text-anchor: middle" x="216.40162" y="246.053891" transform="rotate(-0 216.40162 246.053891)">4</text>
     </g>
    </g>
    <g id="xtick_5">
     <g id="line2d_9">
      <path d="M 271.170177 232.216 
L 271.170177 30.24 
" clip-path="url(#pba6e76875d)" style="fill: none; stroke: #b0b0b0; stroke-opacity: 0.2; stroke-width: 0.8; stroke-linecap: square"/>
     </g>
     <g id="line2d_10">
      <g>
       <use xlink:href="#mcdb51def34" x="271.170177" y="232.216" style="stroke: #000000; stroke-width: 0.8"/>
      </g>
     </g>
     <g id="text_5">
      <text style="font-size: 9px; font-family: 'DejaVu Sans'; text-anchor: middle" x="271.170177" y="246.053891" transform="rotate(-0 271.170177 246.053891)">5</text>
     </g>
    </g>
    <g id="xtick_6">
     <g id="line2d_11">
      <path d="M 325.938734 232.216 
L 325.938734 30.24 
" clip-path="url(#pba6e76875d)" style="fill: none; stroke: #b0b0b0; stroke-opacity: 0.2; stroke-width: 0.8; stroke-linecap: square"/>
     </g>
     <g id="line2d_12">
      <g>
       <use xlink:href="#mcdb51def34" x="325.938734" y="232.216" style="stroke: #000000; stroke-width: 0.8"/>
      </g>
     </g>
     <g id="text_6">
      <text style="font-size: 9px; font-family: 'DejaVu Sans'; text-anchor: middle" x="325.938734" y="246.053891" transform="rotate(-0 325.938734 246.053891)">6</text>
     </g>
    </g>
    <g id="xtick_7">
     <g id="line2d_13">
      <path d="M 380.707291 232.216 
L 380.707291 30.24 
" clip-path="url(#pba6e76875d)" style="fill: none; stroke: #b0b0b0; stroke-opacity: 0.2; stroke-width: 0.8; stroke-linecap: square"/>
     </g>
     <g id="line2d_14">
      <g>
       <use xlink:href="#mcdb51def34" x="380.707291" y="232.216" style="stroke: #000000; stroke-width: 0.8"/>
      </g>
     </g>
     <g id="text_7">
      <text style="font-size: 9px; font-family: 'DejaVu Sans'; text-anchor: middle" x="380.707291" y="246.053891" transform="rotate(-0 380.707291 246.053891)">7</text>
     </g>
    </g>
    <g id="xtick_8">
     <g id="line2d_15">
      <path d="M 435.475849 232.216 
L 435.475849 30.24 
" clip-path="url(#pba6e76875d)" style="fill: none; stroke: #b0b0b0; stroke-opacity: 0.2; stroke-width: 0.8; stroke-linecap: square"/>
     </g>
     <g id="line2d_16">
      <g>
       <use xlink:href="#mcdb51def34" x="435.475849" y="232.216" style="stroke: #000000; stroke-width: 0.8"/>
      </g>
     </g>
     <g id="text_8">
      <text style="font-size: 9px; font-family: 'DejaVu Sans'; text-anchor: middle" x="435.475849" y="246.053891" transform="rotate(-0 435.475849 246.053891)">8</text>
     </g>
    </g>
    <g id="text_9">
     <text style="font-size: 9px; font-family: 'DejaVu Sans'; text-anchor: middle" x="243.785898" y="259.053891" transform="rotate(-0 243.785898 259.053891)">vCPUs</text>
    </g>
   </g>
   <g id="matplotlib.axis_2">
    <g id="ytick_1">
     <g id="line2d_17">
      <path d="M 32.926953 223.035273 
L 454.644844 223.035273 
" clip-path="url(#pba6e76875d)" style="fill: none; stroke: #b0b0b0; stroke-opacity: 0.2; stroke-width: 0.8; stroke-linecap: square"/>
     </g>
     <g id="line2d_18">
      <defs>
       <path id="me11b05b40d" d="M 0 0 
L -3.5 0 
" style="stroke: #000000; stroke-width: 0.8"/>
      </defs>
      <g>
       <use xlink:href="#me11b05b40d" x="32.926953" y="223.035273" style="stroke: #000000; stroke-width: 0.8"/>
      </g>
     </g>
     <g id="text_10">
      <text style="font-size: 9px; font-family: 'DejaVu Sans'; text-anchor: end" x="25.926953" y="226.454218" transform="rotate(-0 25.926953 226.454218)">1</text>
     </g>
    </g>
    <g id="ytick_2">
     <g id="line2d_19">
      <path d="M 32.926953 182.680428 
L 454.644844 182.680428 
" clip-path="url(#pba6e76875d)" style="fill: none; stroke: #b0b0b0; stroke-opacity: 0.2; stroke-width: 0.8; stroke-linecap: square"/>
     </g>
     <g id="line2d_20">
      <g>
       <use xlink:href="#me11b05b40d" x="32.926953" y="182.680428" style="stroke: #000000; stroke-width: 0.8"/>
      </g>
     </g>
     <g id="text_11">
      <text style="font-size: 9px; font-family: 'DejaVu Sans'; text-anchor: end" x="25.926953" y="186.099373" transform="rotate(-0 25.926953 186.099373)">2</text>
     </g>
    </g>
    <g id="ytick_3">
     <g id="line2d_21">
      <path d="M 32.926953 142.325583 
L 454.644844 142.325583 
" clip-path="url(#pba6e76875d)" style="fill: none; stroke: #b0b0b0; stroke-opacity: 0.2; stroke-width: 0.8; stroke-linecap: square"/>
     </g>
     <g id="line2d_22">
      <g>
       <use xlink:href="#me11b05b40d" x="32.926953" y="142.325583" style="stroke: #000000; stroke-width: 0.8"/>
      </g>
     </g>
     <g id="text_12">
      <text style="font-size: 9px; font-family: 'DejaVu Sans'; text-anchor: end" x="25.926953" y="145.744528" transform="rotate(-0 25.926953 145.744528)">3</text>
     </g>
    </g>
    <g id="ytick_4">
     <g id="line2d_23">
      <path d="M 32.926953 101.970738 
L 454.644844 101.970738 
" clip-path="url(#pba6e76875d)" style="fill: none; stroke: #b0b0b0; stroke-opacity: 0.2; stroke-width: 0.8; stroke-linecap: square"/>
     </g>
     <g id="line2d_24">
      <g>
       <use xlink:href="#me11b05b40d" x="32.926953" y="101.970738" style="stroke: #000000; stroke-width: 0.8"/>
      </g>
     </g>
     <g id="text_13">
      <text style="font-size: 9px; font-family: 'DejaVu Sans'; text-anchor: end" x="25.926953" y="105.389683" transform="rotate(-0 25.926953 105.389683)">4</text>
     </g>
    </g>
    <g id="ytick_5">
     <g id="line2d_25">
      <path d="M 32.926953 61.615893 
L 454.644844 61.615893 
" clip-path="url(#pba6e76875d)" style="fill: none; stroke: #b0b0b0; stroke-opacity: 0.2; stroke-width: 0.8; stroke-linecap: square"/>
     </g>
     <g id="line2d_26">
      <g>
       <use xlink:href="#me11b05b40d" x="32.926953" y="61.615893" style="stroke: #000000; stroke-width: 0.8"/>
      </g>
     </g>
     <g id="text_14">
      <text style="font-size: 9px; font-family: 'DejaVu Sans'; text-anchor: end" x="25.926953" y="65.034838" transform="rotate(-0 25.926953 65.034838)">5</text>
     </g>
    </g>
    <g id="text_15">
     <text style="font-size: 9px; font-family: 'DejaVu Sans'; text-anchor: middle" x="14.038594" y="131.228" transform="rotate(-90 14.038594 131.228)">Strong scaling speedup</text>
    </g>
   </g>
   <g id="line2d_27">
    <path d="M 52.095948 223.035273 
L 106.864505 223.035273 
L 216.40162 223.035273 
L 435.475849 223.035273 
" clip-path="url(#pba6e76875d)" style="fill: none; stroke: #d55e00; stroke-width: 1.5; stroke-linecap: square"/>
    <defs>
     <path id="mbd307e297a" d="M 0 3 
C 0.795609 3 1.55874 2.683901 2.12132 2.12132 
C 2.683901 1.55874 3 0.795609 3 0 
C 3 -0.795609 2.683901 -1.55874 2.12132 -2.12132 
C 1.55874 -2.683901 0.795609 -3 0 -3 
C -0.795609 -3 -1.55874 -2.683901 -2.12132 -2.12132 
C -2.683901 -1.55874 -3 -0.795609 -3 0 
C -3 0.795609 -2.683901 1.55874 -2.12132 2.12132 
C -1.55874 2.683901 -0.795609 3 0 3 
z
" style="stroke: #d55e00"/>
    </defs>
    <g clip-path="url(#pba6e76875d)">
     <use xlink:href="#mbd307e297a" x="52.095948" y="223.035273" style="fill: #d55e00; stroke: #d55e00"/>
     <use xlink:href="#mbd307e297a" x="106.864505" y="223.035273" style="fill: #d55e00; stroke: #d55e00"/>
     <use xlink:href="#mbd307e297a" x="216.40162" y="223.035273" style="fill: #d55e00; stroke: #d55e00"/>
     <use xlink:href="#mbd307e297a" x="435.475849" y="223.035273" style="fill: #d55e00; stroke: #d55e00"/>
    </g>
   </g>
   <g id="line2d_28">
    <path d="M 52.095948 223.035273 
L 106.864505 196.804623 
L 216.40162 144.343325 
L 435.475849 39.420727 
" clip-path="url(#pba6e76875d)" style="fill: none; stroke: #555555; stroke-width: 1.5; stroke-linecap: square"/>
    <defs>
     <path id="mebe59ec614" d="M 0 3 
C 0.795609 3 1.55874 2.683901 2.12132 2.12132 
C 2.683901 1.55874 3 0.795609 3 0 
C 3 -0.795609 2.683901 -1.55874 2.12132 -2.12132 
C 1.55874 -2.683901 0.795609 -3 0 -3 
C -0.795609 -3 -1.55874 -2.683901 -2.12132 -2.12132 
C -2.683901 -1.55874 -3 -0.795609 -3 0 
C -3 0.795609 -2.683901 1.55874 -2.12132 2.12132 
C -1.55874 2.683901 -0.795609 3 0 3 
z
" style="stroke: #555555"/>
    </defs>
    <g clip-path="url(#pba6e76875d)">
     <use xlink:href="#mebe59ec614" x="52.095948" y="223.035273" style="fill: #555555; stroke: #555555"/>
     <use xlink:href="#mebe59ec614" x="106.864505" y="196.804623" style="fill: #555555; stroke: #555555"/>
     <use xlink:href="#mebe59ec614" x="216.40162" y="144.343325" style="fill: #555555; stroke: #555555"/>
     <use xlink:href="#mebe59ec614" x="435.475849" y="39.420727" style="fill: #555555; stroke: #555555"/>
    </g>
   </g>
   <g id="line2d_29">
    <path d="M 52.095948 223.035273 
L 106.864505 196.804623 
L 216.40162 144.343325 
L 435.475849 39.420727 
" clip-path="url(#pba6e76875d)" style="fill: none; stroke: #0072b2; stroke-width: 1.5; stroke-linecap: square"/>
    <defs>
     <path id="m9390910e23" d="M 0 3 
C 0.795609 3 1.55874 2.683901 2.12132 2.12132 
C 2.683901 1.55874 3 0.795609 3 0 
C 3 -0.795609 2.683901 -1.55874 2.12132 -2.12132 
C 1.55874 -2.683901 0.795609 -3 0 -3 
C -0.795609 -3 -1.55874 -2.683901 -2.12132 -2.12132 
C -2.683901 -1.55874 -3 -0.795609 -3 0 
C -3 0.795609 -2.683901 1.55874 -2.12132 2.12132 
C -1.55874 2.683901 -0.795609 3 0 3 
z
" style="stroke: #0072b2"/>
    </defs>
    <g clip-path="url(#pba6e76875d)">
     <use xlink:href="#m9390910e23" x="52.095948" y="223.035273" style="fill: #0072b2; stroke: #0072b2"/>
     <use xlink:href="#m9390910e23" x="106.864505" y="196.804623" style="fill: #0072b2; stroke: #0072b2"/>
     <use xlink:href="#m9390910e23" x="216.40162" y="144.343325" style="fill: #0072b2; stroke: #0072b2"/>
     <use xlink:href="#m9390910e23" x="435.475849" y="39.420727" style="fill: #0072b2; stroke: #0072b2"/>
    </g>
   </g>
   <g id="patch_3">
    <path d="M 32.926953 232.216 
L 32.926953 30.24 
" style="fill: none; stroke: #000000; stroke-width: 0.8; stroke-linejoin: miter; stroke-linecap: square"/>
   </g>
   <g id="patch_4">
    <path d="M 32.926953 232.216 
L 454.644844 232.216 
" style="fill: none; stroke: #000000; stroke-width: 0.8; stroke-linejoin: miter; stroke-linecap: square"/>
   </g>
   <g id="legend_1">
    <g id="patch_5">
     <path d="M 39.226953 77.942109 
L 95.918516 77.942109 
Q 97.718516 77.942109 97.718516 76.142109 
L 97.718516 36.54 
Q 97.718516 34.74 95.918516 34.74 
L 39.226953 34.74 
Q 37.426953 34.74 37.426953 36.54 
L 37.426953 76.142109 
Q 37.426953 77.942109 39.226953 77.942109 
z
" style="fill: #ffffff; opacity: 0.8; stroke: #cccccc; stroke-linejoin: miter"/>
    </g>
    <g id="line2d_30">
     <path d="M 41.026953 42.028594 
L 50.026953 42.028594 
L 59.026953 42.028594 
" style="fill: none; stroke: #d55e00; stroke-width: 1.5; stroke-linecap: square"/>
     <g>
      <use xlink:href="#mbd307e297a" x="50.026953" y="42.028594" style="fill: #d55e00; stroke: #d55e00"/>
     </g>
    </g>
    <g id="text_16">
     <text style="font-size: 9px; font-family: 'DejaVu Sans'; text-anchor: start" x="66.226953" y="45.178594" transform="rotate(-0 66.226953 45.178594)">icount</text>
    </g>
    <g id="line2d_31">
     <path d="M 41.026953 55.529297 
L 50.026953 55.529297 
L 59.026953 55.529297 
" style="fill: none; stroke: #555555; stroke-width: 1.5; stroke-linecap: square"/>
     <g>
      <use xlink:href="#mebe59ec614" x="50.026953" y="55.529297" style="fill: #555555; stroke: #555555"/>
     </g>
    </g>
    <g id="text_17">
     <text style="font-size: 9px; font-family: 'DejaVu Sans'; text-anchor: start" x="66.226953" y="58.679297" transform="rotate(-0 66.226953 58.679297)">mttcg</text>
    </g>
    <g id="line2d_32">
     <path d="M 41.026953 69.03 
L 50.026953 69.03 
L 59.026953 69.03 
" style="fill: none; stroke: #0072b2; stroke-width: 1.5; stroke-linecap: square"/>
     <g>
      <use xlink:href="#m9390910e23" x="50.026953" y="69.03" style="fill: #0072b2; stroke: #0072b2"/>
     </g>
    </g>
    <g id="text_18">
     <text style="font-size: 9px; font-family: 'DejaVu Sans'; text-anchor: start" x="66.226953" y="72.18" transform="rotate(-0 66.226953 72.18)">skew</text>
    </g>
   </g>
  </g>
  <g id="text_19">
   <text style="font-size: 10px; font-family: 'DejaVu Sans'; text-anchor: middle; fill: #a02020" x="230.364844" y="14.797656" transform="rotate(-0 230.364844 14.797656)">SYNTHETIC EXAMPLE — NOT MEASURED</text>
  </g>
 </g>
 <defs>
  <clipPath id="pba6e76875d">
   <rect x="32.926953" y="30.24" width="421.717891" height="201.976"/>
  </clipPath>
 </defs>
</svg>
